<svg version="1.1" id="Layer_1" xmlns="http://www.w3.org/2000/svg" xmlns:xlink="http://www.w3.org/1999/xlink" x="0px" y="0px"
	 width="100%" viewBox="0 0 1102 336" enable-background="new 0 0 1102 336" xml:space="preserve">
<path fill="#BB0E25" opacity="1.000000" stroke="none" 
	d="
M701.000000,337.000000 
	C467.373840,337.000000 234.247665,337.000000 1.060747,337.000000 
	C1.060747,225.059982 1.060747,113.119919 1.060747,1.089927 
	C368.209564,1.089927 735.419189,1.089927 1102.814453,1.089927 
	C1102.814453,112.999756 1102.814453,224.999847 1102.814453,337.000000 
	C969.119812,337.000000 835.309875,337.000000 701.000000,337.000000 
M202.847916,154.309647 
	C201.675644,153.095474 200.503387,151.881287 199.256226,150.667267 
	C199.256226,150.667267 199.252045,150.742065 199.093445,150.092712 
	C196.421600,148.341995 193.749741,146.591263 191.018326,144.925644 
	C191.018326,144.925644 191.104614,144.983475 190.921463,144.494614 
	C190.623444,144.352219 190.325439,144.209824 189.592209,143.954391 
	C189.592209,143.954391 189.142609,143.962631 188.580917,143.475861 
	C187.394669,143.143906 186.208420,142.811966 184.645828,142.032928 
	C183.733887,141.841599 182.821945,141.650269 181.062683,141.281174 
	C189.147537,138.252411 195.610306,134.371170 199.391876,126.271370 
	C203.292389,117.373093 203.257645,108.230927 201.161118,98.991417 
	C201.161118,98.991417 201.198990,98.916328 201.299026,98.161690 
	C200.945435,96.719589 200.591843,95.277496 200.030319,93.166489 
	C199.761002,92.788086 199.491684,92.409683 199.151306,91.445610 
	C198.582657,90.521240 198.014008,89.596870 197.445419,88.579330 
	C197.445419,88.579330 197.360809,88.540298 197.180634,87.907036 
	C194.825134,84.943741 192.851120,81.542229 190.043625,79.098167 
	C181.127686,71.336433 170.206009,68.516106 158.725494,68.361580 
	C137.236572,68.072334 115.739456,68.414139 94.249428,68.170013 
	C89.532410,68.116432 88.045334,69.279655 88.064903,74.193626 
	C88.250053,120.677307 88.175217,167.162018 88.175270,213.646439 
	C88.175278,215.430878 88.175270,217.215302 88.175270,219.168060 
	C89.645767,219.385880 90.605621,219.651520 91.565636,219.652100 
	C113.224617,219.665436 134.884766,219.780090 156.542130,219.587952 
	C168.504227,219.481827 180.446442,218.782471 191.669266,211.853760 
	C193.012268,210.894531 194.389725,209.979706 195.692352,208.968491 
	C201.914902,204.138062 206.190964,198.142502 207.006866,189.614502 
	C207.006866,189.614502 207.058258,189.177658 207.800262,188.851196 
	C209.676544,179.902878 210.059814,171.006760 206.856491,162.083450 
	C206.856491,162.083450 206.704147,162.072540 206.587006,161.391220 
	C205.425095,159.215378 204.263184,157.039551 203.061066,154.942581 
	C203.061066,154.942581 203.144241,154.912277 202.847916,154.309647 
M110.840889,284.889343 
	C111.377792,277.041504 111.914688,269.193634 112.457634,261.257446 
	C103.755203,261.257446 96.331360,261.257446 88.703377,261.257446 
	C88.703377,269.243896 88.703377,276.944641 88.703377,284.932281 
	C95.744354,284.932281 102.371384,284.932281 109.506226,285.017273 
	C109.668037,284.960052 109.829842,284.902863 110.840889,284.889343 
M788.955811,285.051605 
	C794.600159,285.087250 800.250061,285.263275 805.884399,285.043396 
	C807.050842,284.997925 809.111267,283.517548 809.144836,282.636932 
	C809.414062,275.579529 809.295349,268.507385 809.295349,261.311157 
	C801.168335,261.311157 793.797302,261.311157 786.061890,261.311157 
	C786.061890,267.415649 786.061890,273.188782 785.939087,279.646149 
	C785.980225,280.105957 786.021301,280.565796 786.000244,281.498932 
	C786.000244,281.498932 786.063354,281.972137 785.941223,282.653992 
	C785.982300,283.112152 786.023438,283.570282 786.122681,284.553131 
	C786.412292,284.697510 786.701965,284.841888 787.525940,285.011505 
	C787.697571,284.962891 787.869141,284.914246 788.955811,285.051605 
M279.210236,217.223557 
	C279.273132,202.106491 279.443695,186.988602 279.326630,171.872940 
	C279.295685,167.874741 280.392853,166.186035 284.650970,166.368256 
	C291.450989,166.659256 298.281982,166.661789 305.081543,166.365784 
	C309.189667,166.186920 310.063171,167.844742 310.022430,171.594284 
	C309.876282,185.049316 310.033173,198.507675 309.975922,212.650146 
	C310.009613,213.109436 310.043304,213.568710 309.986267,214.877029 
	C310.065765,216.312592 310.145264,217.748154 310.228210,219.246109 
	C327.560516,219.246109 344.475739,219.246109 361.485474,219.246109 
	C361.485474,168.857544 361.485474,118.836197 361.485474,68.666992 
	C344.175446,68.666992 327.272736,68.666992 310.075531,68.666992 
	C310.075531,83.688438 310.075531,98.326569 309.975983,113.650047 
	C310.009735,114.109291 310.043457,114.568535 309.985321,115.808838 
	C309.940216,116.855576 309.895081,117.902313 309.407562,119.034340 
	C309.407562,119.034340 308.976074,119.164032 308.049194,119.038963 
	C298.701508,119.038757 289.353851,119.038559 279.752838,118.895409 
	C279.752838,118.895409 279.462128,118.904289 279.239838,118.091576 
	C279.274384,103.096046 279.201080,88.098953 279.419983,73.106110 
	C279.474030,69.404793 278.443451,68.217529 274.643921,68.273758 
	C260.314270,68.485817 245.979538,68.347908 231.646790,68.378670 
	C230.526794,68.381073 229.407425,68.674110 228.169067,68.848816 
	C228.169067,119.031609 228.169067,168.973145 228.169067,218.989090 
	C229.028427,219.205215 229.660416,219.501831 230.292999,219.503082 
	C245.625107,219.533356 260.957458,219.558136 276.289093,219.470703 
	C277.191040,219.465576 278.087524,218.510010 279.210236,217.223557 
M1013.910889,116.883064 
	C1013.385010,115.670349 1012.817261,114.473877 1012.339355,113.242546 
	C1000.702820,83.262825 973.294556,65.094238 941.574707,65.118706 
	C930.412476,65.127312 919.534912,67.190910 909.442566,72.009338 
	C893.076477,79.823074 880.789673,91.897659 873.104797,108.466888 
	C867.064941,121.489479 865.303040,135.219131 865.728882,149.456451 
	C866.080933,161.226166 868.660828,172.570847 874.168091,182.678070 
	C886.477356,205.268829 905.155457,219.310013 931.330933,222.911163 
	C949.506470,225.411697 966.270142,222.152664 981.558655,212.450821 
	C1005.405457,197.318100 1016.917114,175.139893 1017.763855,147.018234 
	C1018.066345,136.973694 1016.585938,127.295563 1013.910889,116.883064 
M720.293274,195.733444 
	C722.258423,191.054169 725.283081,186.527084 725.981323,181.665848 
	C727.764709,169.249680 729.227356,156.701141 729.517273,144.175430 
	C730.056763,120.865265 729.671631,97.533684 729.671326,74.211021 
	C729.671265,72.441193 729.671265,70.671356 729.671265,68.679459 
	C712.116760,68.679459 695.210022,68.679459 677.911743,68.679459 
	C677.911743,70.757195 677.911743,72.560371 677.911804,74.363548 
	C677.911926,100.018478 677.968445,125.673645 677.862061,151.328125 
	C677.842285,156.105927 677.395203,160.912369 676.740540,165.649658 
	C675.852356,172.077072 670.507935,176.354767 663.788574,176.463104 
	C657.703674,176.561218 652.014954,172.376358 651.016174,166.629593 
	C650.313660,162.587463 649.866882,158.446838 649.851440,154.348129 
	C649.751099,127.694046 649.799988,101.039391 649.800049,74.384926 
	C649.800049,72.595100 649.800110,70.805267 649.800110,68.778900 
	C632.306030,68.778900 615.276794,68.778900 597.485596,68.778900 
	C598.036255,102.935310 598.227112,136.717209 599.305847,170.470703 
	C599.715149,183.274979 604.694641,194.929932 613.971375,204.264496 
	C632.663940,223.073410 655.774597,226.711990 680.488586,222.157913 
	C696.845703,219.143753 710.442627,210.578278 720.293274,195.733444 
M477.282928,102.679642 
	C464.218201,141.342407 451.153503,180.005173 437.924408,219.154434 
	C456.667511,219.154434 474.725494,219.154434 492.798615,219.154434 
	C494.341309,212.818634 495.841675,206.656509 497.376862,200.351425 
	C510.236664,200.351425 522.851440,200.351425 535.643494,200.351425 
	C536.931519,205.304276 538.636902,210.145630 539.334961,215.128098 
	C539.829651,218.658783 541.234802,219.532471 544.449951,219.509766 
	C558.773438,219.408600 573.098083,219.466125 587.422302,219.466263 
	C589.852173,219.466293 592.282043,219.466263 595.446716,219.466263 
	C592.468994,210.451111 589.762146,202.255661 587.054993,194.060349 
	C579.288330,170.549088 571.497192,147.045929 563.763062,123.523994 
	C558.127991,106.385628 552.590942,89.214989 546.942932,72.080894 
	C546.305847,70.148186 545.784424,68.288383 542.717346,68.323799 
	C525.730469,68.519958 508.739746,68.370438 491.751770,68.513145 
	C490.446899,68.524109 488.348877,69.594673 487.979034,70.649429 
	C484.341797,81.022331 480.992767,91.496300 477.282928,102.679642 
M825.193665,134.502533 
	C825.193665,129.069382 825.193665,123.636238 825.193665,117.797302 
	C835.268250,117.797302 844.684937,117.797302 854.110352,117.797302 
	C854.110352,101.150116 854.110352,84.937241 854.110352,68.828827 
	C817.676086,68.828827 781.643005,68.828827 745.609741,68.828827 
	C745.609741,85.347549 745.609741,101.439728 745.609741,117.954765 
	C755.303772,117.954765 764.730408,117.954765 774.656494,117.954765 
	C774.656494,151.916046 774.656494,185.456131 774.656494,219.168488 
	C791.721191,219.168488 808.276611,219.168488 825.193665,219.168488 
	C825.193665,191.081528 825.193665,163.291672 825.193665,134.502533 
M306.818573,262.109833 
	C299.884003,263.501160 295.961243,267.838165 295.083588,274.724731 
	C291.662964,272.879730 288.700623,271.281921 285.738281,269.684082 
	C286.799530,269.042297 287.582489,269.087311 288.344360,269.238586 
	C289.268555,269.422089 290.174957,269.695190 291.030029,269.914429 
	C294.115417,263.993744 293.961304,263.380981 287.897980,262.298553 
	C283.416992,261.498657 278.853790,262.468201 276.669525,266.638000 
	C275.482422,268.904175 276.501556,272.326050 276.525604,275.226654 
	C276.869049,275.181458 277.212524,275.136261 277.555969,275.091064 
	C276.457062,277.669525 275.358154,280.248016 273.736694,284.052582 
	C279.018188,284.273102 283.268250,284.931274 287.404755,284.500061 
	C292.431366,283.976013 294.485809,280.088318 295.064484,275.070801 
	C297.686859,282.066101 302.464050,285.546448 309.505829,284.942596 
	C313.842590,284.570709 318.393402,283.648651 319.585693,277.825104 
	C316.814087,277.825104 314.287567,278.078613 311.844208,277.737152 
	C310.178894,277.504456 306.940643,281.436676 306.726044,275.668518 
	C311.148315,275.668518 315.415283,275.668518 319.495819,275.668518 
	C322.137909,268.471283 316.265533,262.828186 306.818573,262.109833 
M841.018677,279.427734 
	C841.146362,278.202942 841.273987,276.978149 841.414673,275.628662 
	C843.323792,275.628662 844.821533,275.711487 846.307373,275.614044 
	C852.139160,275.231567 855.791626,271.799896 856.540039,266.077972 
	C857.140625,261.487213 854.261108,256.242767 849.237854,255.254868 
	C843.218079,254.070984 836.939453,254.203293 830.699707,253.760391 
	C830.699707,264.643829 830.699707,274.490753 830.699707,284.404663 
	C834.264771,284.404663 837.373718,284.404663 840.756897,284.404663 
	C840.851868,282.909302 840.933228,281.627960 841.018677,279.427734 
M145.319260,274.127899 
	C144.899979,271.358307 143.262238,267.947296 144.312851,265.951447 
	C146.561234,261.680145 151.033096,263.991608 154.498932,264.651550 
	C154.498932,261.042725 154.498932,257.791412 154.498932,253.585968 
	C149.587509,254.166443 144.726624,253.781082 140.701263,255.432404 
	C133.973862,258.192169 130.852463,265.770599 132.257095,272.791595 
	C133.532089,279.164612 139.025375,283.920319 146.269318,284.922485 
	C152.943375,285.845825 154.460800,284.649353 154.924850,278.097290 
	C155.036774,276.516968 155.147781,274.936584 155.184631,274.414001 
	C151.978149,274.414001 149.045364,274.414001 145.319260,274.127899 
M163.979263,284.336914 
	C166.187881,284.222168 168.400955,284.159363 170.603195,283.970337 
	C171.670609,283.878693 172.755234,283.255341 173.767014,283.384094 
	C176.926559,283.786041 180.055099,284.431793 183.427917,285.023834 
	C183.427917,277.086304 183.427917,270.362244 183.427917,263.443634 
	C177.810074,262.236725 172.068222,265.228485 166.842285,262.136780 
	C166.402298,261.876495 165.353851,262.589355 164.611237,262.904572 
	C157.271179,266.020538 156.530228,278.474487 163.979263,284.336914 
M924.216675,279.333160 
	C924.215942,276.003082 924.303406,272.670166 924.195374,269.343567 
	C923.999756,263.317261 919.153259,260.493317 913.822266,263.208313 
	C912.909912,263.673004 911.895508,264.507202 911.030518,264.393433 
	C907.774597,263.965179 904.560974,263.215668 900.923950,262.507050 
	C900.923950,270.349762 900.923950,277.261017 900.923950,284.298828 
	C904.277954,284.298828 907.345337,284.298828 910.201904,284.298828 
	C912.240601,279.928040 908.655151,274.558838 914.187195,271.226868 
	C914.187195,275.591400 914.187195,279.955963 914.187195,285.768188 
	C917.809631,282.564850 924.198364,288.889954 924.216675,279.333160 
M531.474731,254.133774 
	C527.530029,254.133774 523.585327,254.133774 519.454468,254.133774 
	C519.454468,257.747467 519.454468,260.804199 519.454468,263.935455 
	C521.317078,264.187988 522.923218,264.405731 524.929688,264.677795 
	C524.929688,271.265015 524.929688,277.685944 524.929688,284.248383 
	C528.565186,284.248383 531.759277,284.248383 535.471130,284.248383 
	C535.471130,277.482513 535.471130,271.072754 535.471130,264.615326 
	C537.780518,264.374176 539.575012,264.186798 541.551880,263.980408 
	C541.551880,260.781860 541.551880,257.712280 541.551880,254.133774 
	C538.355225,254.133774 535.402405,254.133774 531.474731,254.133774 
M251.958817,276.456543 
	C253.527924,271.743011 251.876678,267.860382 248.217148,265.095154 
	C244.037537,261.936951 239.292557,261.002441 234.337280,263.696442 
	C230.456100,265.806488 227.875015,268.710480 227.861420,273.424011 
	C227.844559,279.271240 231.121658,283.398651 236.904083,284.630310 
	C243.858887,286.111755 248.884674,283.571899 251.958817,276.456543 
M946.810303,279.405060 
	C949.738708,284.690826 957.489075,287.002716 964.109619,283.857727 
	C966.270203,282.831360 968.579773,280.042145 968.948853,277.756775 
	C969.698853,273.112885 969.173096,268.262939 969.173096,263.472717 
	C965.514221,263.472717 962.463318,263.472717 958.612915,263.472717 
	C958.612915,268.067322 958.612915,272.340149 958.612915,276.612946 
	C957.991150,276.612396 957.369385,276.611847 956.747681,276.611298 
	C956.350098,272.201172 955.952576,267.791077 955.563538,263.475586 
	C952.165161,263.475586 949.111755,263.475586 945.324158,263.475586 
	C945.831360,268.787415 946.300293,273.698822 946.810303,279.405060 
M650.656982,267.166809 
	C646.094910,273.038666 649.349976,281.513947 654.953735,283.873566 
	C661.911133,286.803223 669.452942,284.539185 672.020813,277.814545 
	C669.396729,277.814545 666.949097,277.686066 664.519714,277.841980 
	C659.835999,278.142670 659.840271,278.209320 659.277466,275.503479 
	C663.939331,275.503479 668.495605,275.503479 673.719788,275.503479 
	C673.185303,273.138458 673.084900,271.304688 672.368774,269.755524 
	C668.311340,260.978363 660.081543,259.763184 650.656982,267.166809 
M589.953125,282.568451 
	C599.102783,286.969574 606.769165,285.193024 609.206055,278.158325 
	C605.006348,276.525970 600.192688,279.473206 596.007935,277.635742 
	C596.051880,276.967712 596.095825,276.299683 596.139832,275.631653 
	C600.790405,275.631653 605.441040,275.631653 611.150940,275.631653 
	C610.166321,272.372894 609.927063,269.817322 608.708435,267.876648 
	C604.981079,261.940887 596.079407,260.410797 590.370361,264.693542 
	C586.160583,267.851654 583.137024,274.830811 589.953125,282.568451 
M381.885101,275.568115 
	C382.059265,273.670410 382.895569,271.525055 382.294250,269.917450 
	C379.533295,262.536255 370.138611,259.989136 363.304962,264.503662 
	C359.200928,267.214905 357.263580,272.491058 358.683807,277.088867 
	C360.091583,281.646179 365.155304,285.088593 370.633606,285.212555 
	C375.871033,285.331055 380.114868,282.659698 381.891876,277.634521 
	C377.347198,277.634521 373.042969,277.634521 367.570435,277.634521 
	C369.052521,276.274902 369.290344,275.863983 369.539368,275.857086 
	C373.353882,275.751160 377.169830,275.697968 381.885101,275.568115 
M1002.410278,262.812927 
	C994.647949,264.725372 993.125488,269.463043 993.042236,274.388458 
	C992.954651,279.577820 997.592773,283.763428 1003.263428,284.744354 
	C1009.805359,285.876068 1014.187927,283.727386 1016.853943,277.824677 
	C1014.233459,277.824677 1011.748047,277.675018 1009.287170,277.856812 
	C1004.624817,278.201202 1004.630676,278.280182 1004.269592,275.563110 
	C1008.582031,275.563110 1012.849365,275.563110 1017.013855,275.563110 
	C1018.680420,267.298340 1012.245483,261.440765 1002.410278,262.812927 
M879.845398,275.628296 
	C882.363708,275.740967 882.804871,274.731567 882.362732,272.246582 
	C880.811218,263.525787 870.518799,259.767670 863.916748,263.910339 
	C859.064514,266.955048 856.753174,270.872009 857.937195,276.699097 
	C858.809753,280.993927 863.574829,284.588715 869.076965,285.103088 
	C874.868835,285.644531 879.365845,283.083405 881.091919,278.316315 
	C877.030518,276.294006 872.153381,279.681915 868.072693,277.687622 
	C868.132751,277.001556 868.192749,276.315460 868.252747,275.629395 
	C871.828369,275.629395 875.403992,275.629395 879.845398,275.628296 
M557.971680,262.304993 
	C548.844055,261.754578 542.095764,268.117828 543.803528,275.664764 
	C545.100525,281.396423 550.148071,285.263123 556.158203,285.129059 
	C562.053955,284.997528 567.494690,280.356445 568.446533,274.646820 
	C569.234436,269.920105 565.052734,264.805359 557.971680,262.304993 
M927.649780,265.835083 
	C928.394775,270.925598 929.144653,276.015411 929.880676,281.107208 
	C930.037048,282.189148 930.142578,283.278473 930.255615,284.230408 
	C933.867432,284.230408 937.077393,284.230408 940.626648,284.230408 
	C940.626648,281.862030 940.518677,279.883636 940.655212,277.922241 
	C940.810364,275.692352 941.065613,273.454468 941.495239,271.262787 
	C941.947754,268.954590 943.445984,266.550812 943.057434,264.453735 
	C942.562744,261.783936 940.631897,259.380249 939.160950,256.556061 
	C936.630493,256.556061 933.521240,256.556061 930.961853,256.556061 
	C929.765320,259.632294 928.717285,262.326721 927.649780,265.835083 
M271.856964,267.636230 
	C274.461456,263.080963 270.403412,263.162323 268.043762,262.476379 
	C263.490967,261.152893 259.197540,262.542877 256.371826,265.994690 
	C253.853088,269.071594 254.614212,272.731201 257.707184,275.186768 
	C256.261108,277.739746 254.925827,280.097046 252.697113,284.031677 
	C258.755371,284.142914 263.682281,284.977142 268.222046,284.004486 
	C270.508453,283.514618 273.309906,279.885834 273.593475,277.414307 
	C273.805115,275.569702 270.474701,273.176208 268.472717,271.291565 
	C267.692627,270.557251 266.230408,270.547546 264.047333,269.903412 
	C267.422516,269.247742 269.602234,268.824310 271.856964,267.636230 
M572.103027,275.429443 
	C572.103027,278.362030 572.103027,281.294617 572.103027,284.242188 
	C575.808044,284.242188 578.859009,284.242188 581.871704,284.242188 
	C581.871704,273.446259 581.871704,263.035278 581.871704,252.618317 
	C578.465027,252.618317 575.417480,252.618317 572.103333,252.618317 
	C572.103333,260.152222 572.103333,267.301239 572.103027,275.429443 
M198.718811,275.762634 
	C198.436508,270.733185 202.919998,272.919495 205.054657,271.726868 
	C205.054657,268.487762 205.054657,265.410645 205.054657,263.334564 
	C199.168472,263.334564 193.650818,263.334564 188.031693,263.334564 
	C188.031693,270.534180 188.031693,277.396912 188.031693,284.325928 
	C191.703659,284.325928 194.955276,284.325928 198.713562,284.325928 
	C198.713562,281.571869 198.713562,279.121704 198.718811,275.762634 
M341.315826,266.670929 
	C341.220734,265.151978 341.125610,263.633026 341.109192,263.370728 
	C334.776794,263.370728 329.349396,263.370728 323.784424,263.370728 
	C323.784424,270.516724 323.784424,277.382202 323.784424,284.194946 
	C333.496582,285.476135 333.696808,285.490540 334.336456,276.607880 
	C334.662537,272.079865 337.448456,271.861267 341.042603,272.089478 
	C341.144043,270.391418 341.230042,268.952240 341.315826,266.670929 
M984.609131,273.393402 
	C986.522034,272.743164 988.434937,272.092926 990.383179,271.430664 
	C990.383179,268.433380 990.383179,265.393982 990.383179,263.383026 
	C984.720642,263.383026 979.431091,263.383026 974.054321,263.383026 
	C974.054321,270.503235 974.054321,277.398529 974.054321,284.307922 
	C977.418823,284.307922 980.492432,284.307922 983.711914,284.307922 
	C983.872314,280.712463 984.018799,277.430145 984.609131,273.393402 
M225.639221,263.299469 
	C224.133667,263.347626 222.610764,263.274048 221.128494,263.485474 
	C220.089737,263.633667 219.050873,264.584229 218.108688,264.457611 
	C215.123596,264.056366 212.183884,263.317596 209.158035,262.695251 
	C209.158035,270.666290 209.158035,277.533936 209.158035,284.341736 
	C212.490601,284.341736 215.420395,284.341736 218.266312,284.341736 
	C220.532181,279.798126 214.656006,271.044556 225.696304,271.897705 
	C225.696304,269.068970 225.696304,266.600647 225.639221,263.299469 
M613.774170,273.500458 
	C613.774170,277.089844 613.774170,280.679230 613.774170,284.244141 
	C617.558594,284.244141 620.612183,284.244141 623.645264,284.244141 
	C624.737915,278.915100 620.835449,271.041260 630.817749,271.801880 
	C630.817749,268.346375 630.817749,265.297119 630.817749,261.057129 
	C625.318970,266.307770 619.486389,261.560089 613.774719,263.700012 
	C613.774719,266.603516 613.774719,269.562744 613.774170,273.500458 
M355.007812,276.424133 
	C355.007812,272.020844 355.007812,267.617554 355.007812,263.490662 
	C350.919373,263.490662 347.679840,263.490662 344.390961,263.490662 
	C344.390961,270.614014 344.390961,277.341644 344.390961,284.239197 
	C348.068604,284.239197 351.425262,284.239197 355.006897,284.239197 
	C355.006897,281.692200 355.006897,279.540070 355.007812,276.424133 
M645.044922,279.284851 
	C645.044922,274.047424 645.044922,268.810028 645.044922,263.448181 
	C641.040588,263.448181 637.681946,263.448181 634.385986,263.448181 
	C634.385986,270.632019 634.385986,277.467529 634.385986,284.635406 
	C636.717163,284.635406 638.702026,284.458893 640.643616,284.674072 
	C644.122681,285.059631 645.578735,283.690125 645.044922,279.284851 
M896.113647,269.595337 
	C896.113647,267.513580 896.113647,265.431793 896.113647,263.510071 
	C892.290039,263.510071 889.235474,263.510071 886.289673,263.510071 
	C886.289673,270.661926 886.289673,277.414032 886.289673,284.307770 
	C889.653564,284.307770 892.722717,284.307770 896.122437,284.307770 
	C896.122437,279.524231 896.122437,275.048523 896.113647,269.595337 
M480.619812,260.942169 
	C478.674988,260.942169 476.730133,260.942169 474.433105,260.942169 
	C474.433105,269.213470 474.433105,276.923798 474.433105,285.133911 
	C481.612091,285.133911 488.694855,285.215790 495.770111,285.021973 
	C496.581238,284.999756 498.011414,283.454651 498.034271,282.586151 
	C498.220032,275.524933 498.138672,268.456696 498.138672,260.942291 
	C492.144897,260.942291 486.869110,260.942291 480.619812,260.942169 
M640.270996,261.607269 
	C641.913452,259.659424 643.555969,257.711609 645.198425,255.763748 
	C643.557129,254.480850 642.092712,252.622711 640.232788,252.050842 
	C637.491577,251.208008 634.734009,252.234879 634.117004,255.411560 
	C633.331360,259.456970 636.221191,260.887085 640.270996,261.607269 
M350.225250,261.565430 
	C350.848877,261.342499 351.786133,261.302551 352.041473,260.864777 
	C353.111023,259.031311 355.203003,256.456390 354.625214,255.317062 
	C353.783203,253.656845 350.968842,252.168961 348.990967,252.163361 
	C347.273132,252.158493 344.413391,254.102417 344.139557,255.572723 
	C343.851929,257.117188 345.936829,259.198792 347.202362,260.882172 
	C347.610046,261.424469 348.707214,261.448395 350.225250,261.565430 
M886.075928,258.848724 
	C888.302185,259.597107 890.500122,260.753815 892.767456,260.911316 
	C893.808350,260.983673 895.756775,259.205414 895.920105,258.068970 
	C896.165039,256.364807 895.700500,253.402725 894.643188,252.914978 
	C892.619324,251.981415 889.697815,251.738876 887.678589,252.541794 
	C886.547852,252.991409 886.479309,256.112091 886.075928,258.848724 
M553.238647,253.327087 
	C552.104736,255.336563 550.970764,257.346039 549.836853,259.355499 
	C550.176819,259.647675 550.516846,259.939819 550.856812,260.231995 
	C552.599976,259.290405 554.343140,258.348816 555.725952,257.601868 
	C557.758362,258.522980 559.539490,259.330200 561.974670,260.433838 
	C560.394714,255.736099 559.287354,251.875824 553.238647,253.327087 
z"/>
<path fill="#FEFDFD" opacity="1.000000" stroke="none" 
	d="
M1014.025696,117.273758 
	C1016.585938,127.295563 1018.066345,136.973694 1017.763855,147.018234 
	C1016.917114,175.139893 1005.405457,197.318100 981.558655,212.450821 
	C966.270142,222.152664 949.506470,225.411697 931.330933,222.911163 
	C905.155457,219.310013 886.477356,205.268829 874.168091,182.678070 
	C868.660828,172.570847 866.080933,161.226166 865.728882,149.456451 
	C865.303040,135.219131 867.064941,121.489479 873.104797,108.466888 
	C880.789673,91.897659 893.076477,79.823074 909.442566,72.009338 
	C919.534912,67.190910 930.412476,65.127312 941.574707,65.118706 
	C973.294556,65.094238 1000.702820,83.262825 1012.339355,113.242546 
	C1012.817261,114.473877 1013.385010,115.670349 1014.025696,117.273758 
M961.619324,126.997597 
	C961.214294,126.473465 960.743835,125.987366 960.413696,125.419640 
	C953.428711,113.408768 933.502563,112.170601 924.219543,123.868706 
	C916.755798,133.274307 915.125183,148.659042 921.417847,160.718246 
	C925.452454,168.450333 932.070251,172.794113 940.785400,173.046066 
	C949.847473,173.308044 957.061279,169.620361 961.555542,161.402771 
	C967.668884,150.224747 966.972351,138.962631 961.619324,126.997597 
z"/>
<path fill="#FEFCFD" opacity="1.000000" stroke="none" 
	d="
M720.088257,196.037186 
	C710.442627,210.578278 696.845703,219.143753 680.488586,222.157913 
	C655.774597,226.711990 632.663940,223.073410 613.971375,204.264496 
	C604.694641,194.929932 599.715149,183.274979 599.305847,170.470703 
	C598.227112,136.717209 598.036255,102.935310 597.485596,68.778900 
	C615.276794,68.778900 632.306030,68.778900 649.800110,68.778900 
	C649.800110,70.805267 649.800049,72.595100 649.800049,74.384926 
	C649.799988,101.039391 649.751099,127.694046 649.851440,154.348129 
	C649.866882,158.446838 650.313660,162.587463 651.016174,166.629593 
	C652.014954,172.376358 657.703674,176.561218 663.788574,176.463104 
	C670.507935,176.354767 675.852356,172.077072 676.740540,165.649658 
	C677.395203,160.912369 677.842285,156.105927 677.862061,151.328125 
	C677.968445,125.673645 677.911926,100.018478 677.911804,74.363548 
	C677.911743,72.560371 677.911743,70.757195 677.911743,68.679459 
	C695.210022,68.679459 712.116760,68.679459 729.671265,68.679459 
	C729.671265,70.671356 729.671265,72.441193 729.671326,74.211021 
	C729.671631,97.533684 730.056763,120.865265 729.517273,144.175430 
	C729.227356,156.701141 727.764709,169.249680 725.981323,181.665848 
	C725.283081,186.527084 722.258423,191.054169 720.088257,196.037186 
z"/>
<path fill="#1F1B1A" opacity="1.000000" stroke="none" 
	d="
M308.976074,119.164032 
	C308.976074,119.164032 309.407562,119.034340 309.922058,118.940529 
	C310.316803,117.573738 310.196991,116.300758 310.077209,115.027779 
	C310.043457,114.568535 310.009735,114.109291 310.255188,112.967422 
	C310.692841,110.475403 310.980408,108.666580 310.988434,106.856522 
	C311.034271,96.533104 311.073669,86.208878 310.985809,75.886032 
	C310.950623,71.751091 312.480621,69.876007 316.893982,69.944237 
	C329.379242,70.137245 341.872589,70.171005 354.355988,69.924583 
	C358.726562,69.838303 360.086212,71.212708 360.073059,75.612999 
	C359.936768,121.236313 359.932526,166.860382 360.077271,212.483643 
	C360.091614,217.006897 358.505859,218.149780 354.260803,218.069839 
	C342.109924,217.841019 329.949280,217.849884 317.798248,218.075638 
	C314.215820,218.142197 311.692383,217.215042 310.077026,214.028000 
	C310.043304,213.568710 310.009613,213.109436 310.255127,211.967499 
	C310.534363,195.841080 310.534363,180.397324 310.534363,164.860916 
	C300.438202,164.860916 290.969543,165.213684 281.549164,164.692566 
	C277.612640,164.474792 276.837555,165.770142 276.992615,169.457245 
	C276.992096,185.289505 276.992706,200.651749 276.990662,216.338531 
	C276.981201,217.095245 276.974335,217.527435 276.668335,217.896545 
	C274.000366,217.884109 271.631592,217.975296 269.262695,217.978561 
	C257.435333,217.994858 245.606323,217.878021 233.781540,218.053101 
	C229.986893,218.109253 228.951401,216.613571 228.957825,213.031708 
	C229.039505,167.554764 229.043091,122.077576 228.962936,76.600624 
	C228.954788,71.981468 230.617020,69.902138 235.400497,69.962723 
	C247.559067,70.116707 259.722778,70.131836 271.880371,69.942551 
	C275.808655,69.881386 277.125183,71.227280 277.054077,75.141548 
	C276.806061,88.793556 276.781342,102.450958 276.875336,116.104912 
	C276.881775,117.043922 278.560883,117.971428 279.462128,118.904289 
	C279.462128,118.904289 279.752838,118.895409 280.027222,119.328506 
	C280.994904,120.151917 281.684418,120.873909 282.382050,120.881805 
	C290.356934,120.972038 298.333954,121.010582 306.307587,120.884750 
	C307.205902,120.870575 308.087006,119.764030 308.976074,119.164032 
M309.496674,122.529373 
	C309.496674,122.529373 309.479431,122.485252 309.496674,122.529373 
z"/>
<path fill="#FEFDFD" opacity="1.000000" stroke="none" 
	d="
M477.422424,102.310608 
	C480.992767,91.496300 484.341797,81.022331 487.979034,70.649429 
	C488.348877,69.594673 490.446899,68.524109 491.751770,68.513145 
	C508.739746,68.370438 525.730469,68.519958 542.717346,68.323799 
	C545.784424,68.288383 546.305847,70.148186 546.942932,72.080894 
	C552.590942,89.214989 558.127991,106.385628 563.763062,123.523994 
	C571.497192,147.045929 579.288330,170.549088 587.054993,194.060349 
	C589.762146,202.255661 592.468994,210.451111 595.446716,219.466263 
	C592.282043,219.466263 589.852173,219.466293 587.422302,219.466263 
	C573.098083,219.466125 558.773438,219.408600 544.449951,219.509766 
	C541.234802,219.532471 539.829651,218.658783 539.334961,215.128098 
	C538.636902,210.145630 536.931519,205.304276 535.643494,200.351425 
	C522.851440,200.351425 510.236664,200.351425 497.376862,200.351425 
	C495.841675,206.656509 494.341309,212.818634 492.798615,219.154434 
	C474.725494,219.154434 456.667511,219.154434 437.924408,219.154434 
	C451.153503,180.005173 464.218201,141.342407 477.422424,102.310608 
M509.280396,149.849075 
	C508.196808,154.781555 507.113251,159.714050 506.000427,164.779724 
	C513.039734,164.779724 519.994934,164.779724 526.642212,164.779724 
	C522.993042,148.141068 519.423035,131.863327 516.419250,118.167564 
	C514.541565,126.734978 512.093323,137.905533 509.280396,149.849075 
z"/>
<path fill="#1F1B1A" opacity="1.000000" stroke="none" 
	d="
M199.222382,92.031273 
	C199.491684,92.409683 199.761002,92.788086 199.884323,93.752823 
	C200.225220,95.864883 200.712097,97.390610 201.198990,98.916328 
	C201.198990,98.916328 201.161118,98.991417 201.035889,99.352943 
	C200.737991,101.002686 200.503784,102.286118 200.403137,103.579933 
	C199.911972,109.893539 199.441803,116.208885 198.999603,122.526100 
	C198.900360,123.943916 198.943130,125.371681 198.920517,126.794861 
	C195.610306,134.371170 189.147537,138.252411 181.062683,141.281174 
	C182.821945,141.650269 183.733887,141.841599 185.060532,142.573944 
	C186.697693,143.397522 187.920151,143.680069 189.142609,143.962631 
	C189.142609,143.962631 189.592209,143.954391 189.957306,144.198181 
	C190.555054,144.663025 190.815796,144.843521 191.104614,144.983475 
	C191.104614,144.983475 191.018326,144.925644 191.102768,145.226013 
	C193.875488,147.264938 196.563766,149.003510 199.252045,150.742065 
	C199.252045,150.742065 199.256226,150.667267 199.216965,151.050385 
	C200.499878,152.593094 201.822052,153.752686 203.144241,154.912277 
	C203.144241,154.912277 203.061066,154.942581 203.050232,155.315002 
	C203.360336,157.792130 203.681244,159.896835 203.926849,162.040131 
	C203.851532,162.078720 203.836533,162.269516 203.836533,162.269516 
	C203.836533,162.269516 203.998413,161.997787 204.337097,162.000153 
	C205.351898,162.025848 206.028030,162.049194 206.704147,162.072540 
	C206.704147,162.072540 206.856491,162.083450 206.724350,162.491440 
	C206.747559,171.658844 206.902908,180.418243 207.058258,189.177658 
	C207.058258,189.177658 207.006866,189.614502 206.712677,190.070374 
	C204.671082,192.094986 202.923676,193.663712 200.728088,195.634811 
	C202.312485,200.717987 199.370880,204.244553 194.649582,207.078247 
	C193.167114,207.968018 192.174408,209.673813 190.621155,210.938263 
	C189.700272,210.563461 189.050140,210.339386 188.541504,209.936584 
	C183.830994,206.206177 183.522552,206.471497 181.789185,212.329636 
	C181.341232,213.843536 178.977203,215.658112 177.350723,215.810287 
	C168.873001,216.603470 160.351242,217.256516 151.841080,217.305130 
	C133.199036,217.411652 114.554657,217.041031 95.911469,217.063385 
	C91.737343,217.068390 89.922630,215.858307 89.933495,211.379181 
	C90.042549,166.413269 89.986397,121.446983 90.016922,76.480820 
	C90.020866,70.670181 90.784401,70.009827 96.792000,70.003601 
	C113.779198,69.985992 130.768265,69.854210 147.752701,70.072197 
	C153.989914,70.152245 160.242859,71.689651 166.437866,71.415520 
	C170.443680,71.238251 171.870056,71.873741 172.091370,75.884743 
	C172.323349,80.088890 174.404297,81.059349 178.234146,79.708794 
	C177.281693,78.669426 176.192154,77.480476 175.102615,76.291527 
	C175.514511,75.690102 175.926422,75.088676 176.338318,74.487259 
	C180.691269,77.649109 184.954300,80.956894 190.201096,82.232651 
	C190.905258,82.403870 191.286621,84.536949 191.522308,85.815948 
	C191.742294,87.009834 191.569321,88.276138 191.569321,90.058975 
	C193.885208,89.451691 195.623016,88.995995 197.360809,88.540298 
	C197.360809,88.540298 197.445419,88.579330 197.340210,88.960312 
	C197.897476,90.237953 198.559937,91.134605 199.222382,92.031273 
M153.939316,108.195076 
	C153.939316,108.195076 153.773804,108.222420 153.892517,107.311333 
	C153.477631,104.788162 155.590576,100.357773 151.629700,100.334793 
	C146.353989,100.304184 141.001190,102.008148 135.842010,103.516090 
	C134.849838,103.806068 134.176804,106.607658 134.086731,108.289680 
	C133.846405,112.776749 133.859375,117.292419 134.086945,121.780739 
	C134.159378,123.209183 135.222595,124.587395 136.426865,126.544167 
	C143.804657,127.064529 150.292984,125.945747 155.264206,119.378319 
	C158.193359,115.508636 154.386719,112.818031 154.693130,108.996117 
	C154.434204,108.673714 154.175278,108.351311 153.939316,108.195076 
M158.050552,177.695053 
	C163.666931,167.868423 159.021103,159.144012 147.892899,158.686935 
	C145.417496,158.585236 142.919998,158.856781 140.457047,158.656586 
	C137.077316,158.381866 135.717880,159.539505 135.870010,163.107254 
	C136.137451,169.378433 135.987442,175.667404 136.270660,182.682022 
	C142.740799,185.231415 149.103394,183.839005 155.338760,181.865570 
	C156.469498,181.507706 157.109329,179.598801 158.050552,177.695053 
z"/>
<path fill="#FEFDFD" opacity="1.000000" stroke="none" 
	d="
M825.193665,135.002182 
	C825.193665,163.291672 825.193665,191.081528 825.193665,219.168488 
	C808.276611,219.168488 791.721191,219.168488 774.656494,219.168488 
	C774.656494,185.456131 774.656494,151.916046 774.656494,117.954765 
	C764.730408,117.954765 755.303772,117.954765 745.609741,117.954765 
	C745.609741,101.439728 745.609741,85.347549 745.609741,68.828827 
	C781.643005,68.828827 817.676086,68.828827 854.110352,68.828827 
	C854.110352,84.937241 854.110352,101.150116 854.110352,117.797302 
	C844.684937,117.797302 835.268250,117.797302 825.193665,117.797302 
	C825.193665,123.636238 825.193665,129.069382 825.193665,135.002182 
z"/>
<path fill="#201A1C" opacity="1.000000" stroke="none" 
	d="
M197.270721,88.223663 
	C195.623016,88.995995 193.885208,89.451691 191.569321,90.058975 
	C191.569321,88.276138 191.742294,87.009834 191.522308,85.815948 
	C191.286621,84.536949 190.905258,82.403870 190.201096,82.232651 
	C184.954300,80.956894 180.691269,77.649109 176.338318,74.487259 
	C175.926422,75.088676 175.514511,75.690102 175.102615,76.291527 
	C176.192154,77.480476 177.281693,78.669426 178.234146,79.708794 
	C174.404297,81.059349 172.323349,80.088890 172.091370,75.884743 
	C171.870056,71.873741 170.443680,71.238251 166.437866,71.415520 
	C160.242859,71.689651 153.989914,70.152245 147.752701,70.072197 
	C130.768265,69.854210 113.779198,69.985992 96.792000,70.003601 
	C90.784401,70.009827 90.020866,70.670181 90.016922,76.480820 
	C89.986397,121.446983 90.042549,166.413269 89.933495,211.379181 
	C89.922630,215.858307 91.737343,217.068390 95.911469,217.063385 
	C114.554657,217.041031 133.199036,217.411652 151.841080,217.305130 
	C160.351242,217.256516 168.873001,216.603470 177.350723,215.810287 
	C178.977203,215.658112 181.341232,213.843536 181.789185,212.329636 
	C183.522552,206.471497 183.830994,206.206177 188.541504,209.936584 
	C189.050140,210.339386 189.700272,210.563461 190.641571,211.211578 
	C191.009277,211.735123 191.020218,211.917526 191.031174,212.099945 
	C180.446442,218.782471 168.504227,219.481827 156.542130,219.587952 
	C134.884766,219.780090 113.224617,219.665436 91.565636,219.652100 
	C90.605621,219.651520 89.645767,219.385880 88.175270,219.168060 
	C88.175270,217.215302 88.175278,215.430878 88.175270,213.646439 
	C88.175217,167.162018 88.250053,120.677307 88.064903,74.193626 
	C88.045334,69.279655 89.532410,68.116432 94.249428,68.170013 
	C115.739456,68.414139 137.236572,68.072334 158.725494,68.361580 
	C170.206009,68.516106 181.127686,71.336433 190.043625,79.098167 
	C192.851120,81.542229 194.825134,84.943741 197.270721,88.223663 
z"/>
<path fill="#F9EFF0" opacity="1.000000" stroke="none" 
	d="
M307.223877,262.080078 
	C316.265533,262.828186 322.137909,268.471283 319.495819,275.668518 
	C315.415283,275.668518 311.148315,275.668518 306.726044,275.668518 
	C306.940643,281.436676 310.178894,277.504456 311.844208,277.737152 
	C314.287567,278.078613 316.814087,277.825104 319.585693,277.825104 
	C318.393402,283.648651 313.842590,284.570709 309.505829,284.942596 
	C302.464050,285.546448 297.686859,282.066101 295.064484,275.070801 
	C294.485809,280.088318 292.431366,283.976013 287.404755,284.500061 
	C283.268250,284.931274 279.018188,284.273102 273.736694,284.052582 
	C275.358154,280.248016 276.457062,277.669525 277.555969,275.091064 
	C277.212524,275.136261 276.869049,275.181458 276.525604,275.226654 
	C276.501556,272.326050 275.482422,268.904175 276.669525,266.638000 
	C278.853790,262.468201 283.416992,261.498657 287.897980,262.298553 
	C293.961304,263.380981 294.115417,263.993744 291.030029,269.914429 
	C290.174957,269.695190 289.268555,269.422089 288.344360,269.238586 
	C287.582489,269.087311 286.799530,269.042297 285.738281,269.684082 
	C288.700623,271.281921 291.662964,272.879730 295.083588,274.724731 
	C295.961243,267.838165 299.884003,263.501160 307.223877,262.080078 
z"/>
<path fill="#F9EFF0" opacity="1.000000" stroke="none" 
	d="
M841.016602,279.887207 
	C840.933228,281.627960 840.851868,282.909302 840.756897,284.404663 
	C837.373718,284.404663 834.264771,284.404663 830.699707,284.404663 
	C830.699707,274.490753 830.699707,264.643829 830.699707,253.760391 
	C836.939453,254.203293 843.218079,254.070984 849.237854,255.254868 
	C854.261108,256.242767 857.140625,261.487213 856.540039,266.077972 
	C855.791626,271.799896 852.139160,275.231567 846.307373,275.614044 
	C844.821533,275.711487 843.323792,275.628662 841.414673,275.628662 
	C841.273987,276.978149 841.146362,278.202942 841.016602,279.887207 
z"/>
<path fill="#131B19" opacity="1.000000" stroke="none" 
	d="
M310.031647,214.452515 
	C311.692383,217.215042 314.215820,218.142197 317.798248,218.075638 
	C329.949280,217.849884 342.109924,217.841019 354.260803,218.069839 
	C358.505859,218.149780 360.091614,217.006897 360.077271,212.483643 
	C359.932526,166.860382 359.936768,121.236313 360.073059,75.612999 
	C360.086212,71.212708 358.726562,69.838303 354.355988,69.924583 
	C341.872589,70.171005 329.379242,70.137245 316.893982,69.944237 
	C312.480621,69.876007 310.950623,71.751091 310.985809,75.886032 
	C311.073669,86.208878 311.034271,96.533104 310.988434,106.856522 
	C310.980408,108.666580 310.692841,110.475403 310.304932,112.624741 
	C310.075531,98.326569 310.075531,83.688438 310.075531,68.666992 
	C327.272736,68.666992 344.175446,68.666992 361.485474,68.666992 
	C361.485474,118.836197 361.485474,168.857544 361.485474,219.246109 
	C344.475739,219.246109 327.560516,219.246109 310.228210,219.246109 
	C310.145264,217.748154 310.065765,216.312592 310.031647,214.452515 
z"/>
<path fill="#F9F0F1" opacity="1.000000" stroke="none" 
	d="
M145.715912,274.270935 
	C149.045364,274.414001 151.978149,274.414001 155.184631,274.414001 
	C155.147781,274.936584 155.036774,276.516968 154.924850,278.097290 
	C154.460800,284.649353 152.943375,285.845825 146.269318,284.922485 
	C139.025375,283.920319 133.532089,279.164612 132.257095,272.791595 
	C130.852463,265.770599 133.973862,258.192169 140.701263,255.432404 
	C144.726624,253.781082 149.587509,254.166443 154.498932,253.585968 
	C154.498932,257.791412 154.498932,261.042725 154.498932,264.651550 
	C151.033096,263.991608 146.561234,261.680145 144.312851,265.951447 
	C143.262238,267.947296 144.899979,271.358307 145.715912,274.270935 
z"/>
<path fill="#F9F0F1" opacity="1.000000" stroke="none" 
	d="
M163.665283,284.166443 
	C156.530228,278.474487 157.271179,266.020538 164.611237,262.904572 
	C165.353851,262.589355 166.402298,261.876495 166.842285,262.136780 
	C172.068222,265.228485 177.810074,262.236725 183.427917,263.443634 
	C183.427917,270.362244 183.427917,277.086304 183.427917,285.023834 
	C180.055099,284.431793 176.926559,283.786041 173.767014,283.384094 
	C172.755234,283.255341 171.670609,283.878693 170.603195,283.970337 
	C168.400955,284.159363 166.187881,284.222168 163.665283,284.166443 
M168.833572,272.119141 
	C169.617630,273.665619 170.401688,275.212097 171.185745,276.758575 
	C172.091492,275.763794 173.813675,274.710266 173.747086,273.785522 
	C173.561234,271.203888 171.988861,270.003540 168.833572,272.119141 
z"/>
<path fill="#0B1C1B" opacity="1.000000" stroke="none" 
	d="
M279.350983,118.497932 
	C278.560883,117.971428 276.881775,117.043922 276.875336,116.104912 
	C276.781342,102.450958 276.806061,88.793556 277.054077,75.141548 
	C277.125183,71.227280 275.808655,69.881386 271.880371,69.942551 
	C259.722778,70.131836 247.559067,70.116707 235.400497,69.962723 
	C230.617020,69.902138 228.954788,71.981468 228.962936,76.600624 
	C229.043091,122.077576 229.039505,167.554764 228.957825,213.031708 
	C228.951401,216.613571 229.986893,218.109253 233.781540,218.053101 
	C245.606323,217.878021 257.435333,217.994858 269.262695,217.978561 
	C271.631592,217.975296 274.000366,217.884109 277.005188,217.907974 
	C278.089630,217.987244 278.538116,217.991989 278.986572,217.996750 
	C278.087524,218.510010 277.191040,219.465576 276.289093,219.470703 
	C260.957458,219.558136 245.625107,219.533356 230.292999,219.503082 
	C229.660416,219.501831 229.028427,219.205215 228.169067,218.989090 
	C228.169067,168.973145 228.169067,119.031609 228.169067,68.848816 
	C229.407425,68.674110 230.526794,68.381073 231.646790,68.378670 
	C245.979538,68.347908 260.314270,68.485817 274.643921,68.273758 
	C278.443451,68.217529 279.474030,69.404793 279.419983,73.106110 
	C279.201080,88.098953 279.274384,103.096046 279.350983,118.497932 
z"/>
<path fill="#FBF4F4" opacity="1.000000" stroke="none" 
	d="
M924.215210,279.808228 
	C924.198364,288.889954 917.809631,282.564850 914.187195,285.768188 
	C914.187195,279.955963 914.187195,275.591400 914.187195,271.226868 
	C908.655151,274.558838 912.240601,279.928040 910.201904,284.298828 
	C907.345337,284.298828 904.277954,284.298828 900.923950,284.298828 
	C900.923950,277.261017 900.923950,270.349762 900.923950,262.507050 
	C904.560974,263.215668 907.774597,263.965179 911.030518,264.393433 
	C911.895508,264.507202 912.909912,263.673004 913.822266,263.208313 
	C919.153259,260.493317 923.999756,263.317261 924.195374,269.343567 
	C924.303406,272.670166 924.215942,276.003082 924.215210,279.808228 
z"/>
<path fill="#FBF5F6" opacity="1.000000" stroke="none" 
	d="
M531.962158,254.133774 
	C535.402405,254.133774 538.355225,254.133774 541.551880,254.133774 
	C541.551880,257.712280 541.551880,260.781860 541.551880,263.980408 
	C539.575012,264.186798 537.780518,264.374176 535.471130,264.615326 
	C535.471130,271.072754 535.471130,277.482513 535.471130,284.248383 
	C531.759277,284.248383 528.565186,284.248383 524.929688,284.248383 
	C524.929688,277.685944 524.929688,271.265015 524.929688,264.677795 
	C522.923218,264.405731 521.317078,264.187988 519.454468,263.935455 
	C519.454468,260.804199 519.454468,257.747467 519.454468,254.133774 
	C523.585327,254.133774 527.530029,254.133774 531.962158,254.133774 
z"/>
<path fill="#FAF4F4" opacity="1.000000" stroke="none" 
	d="
M251.815887,276.811584 
	C248.884674,283.571899 243.858887,286.111755 236.904083,284.630310 
	C231.121658,283.398651 227.844559,279.271240 227.861420,273.424011 
	C227.875015,268.710480 230.456100,265.806488 234.337280,263.696442 
	C239.292557,261.002441 244.037537,261.936951 248.217148,265.095154 
	C251.876678,267.860382 253.527924,271.743011 251.815887,276.811584 
z"/>
<path fill="#FBF5F5" opacity="1.000000" stroke="none" 
	d="
M946.789795,279.007629 
	C946.300293,273.698822 945.831360,268.787415 945.324158,263.475586 
	C949.111755,263.475586 952.165161,263.475586 955.563538,263.475586 
	C955.952576,267.791077 956.350098,272.201172 956.747681,276.611298 
	C957.369385,276.611847 957.991150,276.612396 958.612915,276.612946 
	C958.612915,272.340149 958.612915,268.067322 958.612915,263.472717 
	C962.463318,263.472717 965.514221,263.472717 969.173096,263.472717 
	C969.173096,268.262939 969.698853,273.112885 968.948853,277.756775 
	C968.579773,280.042145 966.270203,282.831360 964.109619,283.857727 
	C957.489075,287.002716 949.738708,284.690826 946.789795,279.007629 
z"/>
<path fill="#F9F0F0" opacity="1.000000" stroke="none" 
	d="
M650.815308,266.827148 
	C660.081543,259.763184 668.311340,260.978363 672.368774,269.755524 
	C673.084900,271.304688 673.185303,273.138458 673.719788,275.503479 
	C668.495605,275.503479 663.939331,275.503479 659.277466,275.503479 
	C659.840271,278.209320 659.835999,278.142670 664.519714,277.841980 
	C666.949097,277.686066 669.396729,277.814545 672.020813,277.814545 
	C669.452942,284.539185 661.911133,286.803223 654.953735,283.873566 
	C649.349976,281.513947 646.094910,273.038666 650.815308,266.827148 
z"/>
<path fill="#F9F0F1" opacity="1.000000" stroke="none" 
	d="
M589.663696,282.343750 
	C583.137024,274.830811 586.160583,267.851654 590.370361,264.693542 
	C596.079407,260.410797 604.981079,261.940887 608.708435,267.876648 
	C609.927063,269.817322 610.166321,272.372894 611.150940,275.631653 
	C605.441040,275.631653 600.790405,275.631653 596.139832,275.631653 
	C596.095825,276.299683 596.051880,276.967712 596.007935,277.635742 
	C600.192688,279.473206 605.006348,276.525970 609.206055,278.158325 
	C606.769165,285.193024 599.102783,286.969574 589.663696,282.343750 
z"/>
<path fill="#F9EFF0" opacity="1.000000" stroke="none" 
	d="
M381.435303,275.600281 
	C377.169830,275.697968 373.353882,275.751160 369.539368,275.857086 
	C369.290344,275.863983 369.052521,276.274902 367.570435,277.634521 
	C373.042969,277.634521 377.347198,277.634521 381.891876,277.634521 
	C380.114868,282.659698 375.871033,285.331055 370.633606,285.212555 
	C365.155304,285.088593 360.091583,281.646179 358.683807,277.088867 
	C357.263580,272.491058 359.200928,267.214905 363.304962,264.503662 
	C370.138611,259.989136 379.533295,262.536255 382.294250,269.917450 
	C382.895569,271.525055 382.059265,273.670410 381.435303,275.600281 
z"/>
<path fill="#1E1B1A" opacity="1.000000" stroke="none" 
	d="
M786.064575,284.028442 
	C786.023438,283.570282 785.982300,283.112152 786.103638,282.208679 
	C786.407288,281.477997 786.339355,281.232086 786.062378,281.025604 
	C786.021301,280.565796 785.980225,280.105957 786.233276,278.967133 
	C786.684387,277.144348 786.952209,276.003387 786.981201,274.856384 
	C787.305664,262.016083 787.295776,262.015808 799.858337,262.007629 
	C807.996094,262.002319 807.996033,262.002350 807.997620,270.086578 
	C808.000183,282.999115 807.998901,282.905090 795.194641,283.086395 
	C792.802063,283.120270 790.424927,284.244537 788.040649,284.865631 
	C787.869141,284.914246 787.697571,284.962891 787.131226,284.814056 
	C786.553162,284.374054 786.329224,284.178009 786.064575,284.028442 
z"/>
<path fill="#F9F0F0" opacity="1.000000" stroke="none" 
	d="
M1002.763611,262.613342 
	C1012.245483,261.440765 1018.680420,267.298340 1017.013855,275.563110 
	C1012.849365,275.563110 1008.582031,275.563110 1004.269592,275.563110 
	C1004.630676,278.280182 1004.624817,278.201202 1009.287170,277.856812 
	C1011.748047,277.675018 1014.233459,277.824677 1016.853943,277.824677 
	C1014.187927,283.727386 1009.805359,285.876068 1003.263428,284.744354 
	C997.592773,283.763428 992.954651,279.577820 993.042236,274.388458 
	C993.125488,269.463043 994.647949,264.725372 1002.763611,262.613342 
z"/>
<path fill="#F9EFF0" opacity="1.000000" stroke="none" 
	d="
M879.412476,275.628845 
	C875.403992,275.629395 871.828369,275.629395 868.252747,275.629395 
	C868.192749,276.315460 868.132751,277.001556 868.072693,277.687622 
	C872.153381,279.681915 877.030518,276.294006 881.091919,278.316315 
	C879.365845,283.083405 874.868835,285.644531 869.076965,285.103088 
	C863.574829,284.588715 858.809753,280.993927 857.937195,276.699097 
	C856.753174,270.872009 859.064514,266.955048 863.916748,263.910339 
	C870.518799,259.767670 880.811218,263.525787 882.362732,272.246582 
	C882.804871,274.731567 882.363708,275.740967 879.412476,275.628845 
z"/>
<path fill="#FAF3F3" opacity="1.000000" stroke="none" 
	d="
M558.322266,262.498779 
	C565.052734,264.805359 569.234436,269.920105 568.446533,274.646820 
	C567.494690,280.356445 562.053955,284.997528 556.158203,285.129059 
	C550.148071,285.263123 545.100525,281.396423 543.803528,275.664764 
	C542.095764,268.117828 548.844055,261.754578 558.322266,262.498779 
M555.488953,271.006042 
	C552.939453,271.906921 551.961670,273.543823 554.035522,275.618896 
	C554.681274,276.265015 557.014404,276.303772 557.655212,275.678223 
	C559.783752,273.600403 558.748779,271.966187 555.488953,271.006042 
z"/>
<path fill="#FAF1F1" opacity="1.000000" stroke="none" 
	d="
M927.659546,265.428101 
	C928.717285,262.326721 929.765320,259.632294 930.961853,256.556061 
	C933.521240,256.556061 936.630493,256.556061 939.160950,256.556061 
	C940.631897,259.380249 942.562744,261.783936 943.057434,264.453735 
	C943.445984,266.550812 941.947754,268.954590 941.495239,271.262787 
	C941.065613,273.454468 940.810364,275.692352 940.655212,277.922241 
	C940.518677,279.883636 940.626648,281.862030 940.626648,284.230408 
	C937.077393,284.230408 933.867432,284.230408 930.255615,284.230408 
	C930.142578,283.278473 930.037048,282.189148 929.880676,281.107208 
	C929.144653,276.015411 928.394775,270.925598 927.659546,265.428101 
z"/>
<path fill="#F9EFF0" opacity="1.000000" stroke="none" 
	d="
M271.819458,268.018555 
	C269.602234,268.824310 267.422516,269.247742 264.047333,269.903412 
	C266.230408,270.547546 267.692627,270.557251 268.472717,271.291565 
	C270.474701,273.176208 273.805115,275.569702 273.593475,277.414307 
	C273.309906,279.885834 270.508453,283.514618 268.222046,284.004486 
	C263.682281,284.977142 258.755371,284.142914 252.697113,284.031677 
	C254.925827,280.097046 256.261108,277.739746 257.707184,275.186768 
	C254.614212,272.731201 253.853088,269.071594 256.371826,265.994690 
	C259.197540,262.542877 263.490967,261.152893 268.043762,262.476379 
	C270.403412,263.162323 274.461456,263.080963 271.819458,268.018555 
z"/>
<path fill="#FBF5F5" opacity="1.000000" stroke="none" 
	d="
M572.103149,274.939880 
	C572.103333,267.301239 572.103333,260.152222 572.103333,252.618317 
	C575.417480,252.618317 578.465027,252.618317 581.871704,252.618317 
	C581.871704,263.035278 581.871704,273.446259 581.871704,284.242188 
	C578.859009,284.242188 575.808044,284.242188 572.103027,284.242188 
	C572.103027,281.294617 572.103027,278.362030 572.103149,274.939880 
z"/>
<path fill="#FAF2F2" opacity="1.000000" stroke="none" 
	d="
M198.716187,276.217102 
	C198.713562,279.121704 198.713562,281.571869 198.713562,284.325928 
	C194.955276,284.325928 191.703659,284.325928 188.031693,284.325928 
	C188.031693,277.396912 188.031693,270.534180 188.031693,263.334564 
	C193.650818,263.334564 199.168472,263.334564 205.054657,263.334564 
	C205.054657,265.410645 205.054657,268.487762 205.054657,271.726868 
	C202.919998,272.919495 198.436508,270.733185 198.716187,276.217102 
z"/>
<path fill="#F9EDEE" opacity="1.000000" stroke="none" 
	d="
M341.315918,267.091980 
	C341.230042,268.952240 341.144043,270.391418 341.042603,272.089478 
	C337.448456,271.861267 334.662537,272.079865 334.336456,276.607880 
	C333.696808,285.490540 333.496582,285.476135 323.784424,284.194946 
	C323.784424,277.382202 323.784424,270.516724 323.784424,263.370728 
	C329.349396,263.370728 334.776794,263.370728 341.109192,263.370728 
	C341.125610,263.633026 341.220734,265.151978 341.315918,267.091980 
z"/>
<path fill="#FAF2F2" opacity="1.000000" stroke="none" 
	d="
M984.387207,273.770599 
	C984.018799,277.430145 983.872314,280.712463 983.711914,284.307922 
	C980.492432,284.307922 977.418823,284.307922 974.054321,284.307922 
	C974.054321,277.398529 974.054321,270.503235 974.054321,263.383026 
	C979.431091,263.383026 984.720642,263.383026 990.383179,263.383026 
	C990.383179,265.393982 990.383179,268.433380 990.383179,271.430664 
	C988.434937,272.092926 986.522034,272.743164 984.387207,273.770599 
z"/>
<path fill="#FAF1F1" opacity="1.000000" stroke="none" 
	d="
M225.667755,263.715881 
	C225.696304,266.600647 225.696304,269.068970 225.696304,271.897705 
	C214.656006,271.044556 220.532181,279.798126 218.266312,284.341736 
	C215.420395,284.341736 212.490601,284.341736 209.158035,284.341736 
	C209.158035,277.533936 209.158035,270.666290 209.158035,262.695251 
	C212.183884,263.317596 215.123596,264.056366 218.108688,264.457611 
	C219.050873,264.584229 220.089737,263.633667 221.128494,263.485474 
	C222.610764,263.274048 224.133667,263.347626 225.667755,263.715881 
z"/>
<path fill="#FAF4F4" opacity="1.000000" stroke="none" 
	d="
M613.774414,273.011230 
	C613.774719,269.562744 613.774719,266.603516 613.774719,263.700012 
	C619.486389,261.560089 625.318970,266.307770 630.817749,261.057129 
	C630.817749,265.297119 630.817749,268.346375 630.817749,271.801880 
	C620.835449,271.041260 624.737915,278.915100 623.645264,284.244141 
	C620.612183,284.244141 617.558594,284.244141 613.774170,284.244141 
	C613.774170,280.679230 613.774170,277.089844 613.774414,273.011230 
z"/>
<path fill="#F9EFF0" opacity="1.000000" stroke="none" 
	d="
M355.007355,276.906036 
	C355.006897,279.540070 355.006897,281.692200 355.006897,284.239197 
	C351.425262,284.239197 348.068604,284.239197 344.390961,284.239197 
	C344.390961,277.341644 344.390961,270.614014 344.390961,263.490662 
	C347.679840,263.490662 350.919373,263.490662 355.007812,263.490662 
	C355.007812,267.617554 355.007812,272.020844 355.007355,276.906036 
z"/>
<path fill="#FAF1F1" opacity="1.000000" stroke="none" 
	d="
M645.044189,279.755493 
	C645.578735,283.690125 644.122681,285.059631 640.643616,284.674072 
	C638.702026,284.458893 636.717163,284.635406 634.385986,284.635406 
	C634.385986,277.467529 634.385986,270.632019 634.385986,263.448181 
	C637.681946,263.448181 641.040588,263.448181 645.044922,263.448181 
	C645.044922,268.810028 645.044922,274.047424 645.044189,279.755493 
z"/>
<path fill="#131B19" opacity="1.000000" stroke="none" 
	d="
M279.098389,217.610153 
	C278.538116,217.991989 278.089630,217.987244 277.304321,217.971039 
	C276.974335,217.527435 276.981201,217.095245 277.230164,215.998688 
	C277.641052,214.532990 277.954956,213.732010 277.956970,212.930252 
	C277.990784,199.529648 278.011841,186.128830 277.945679,172.728500 
	C277.939514,171.479874 277.325562,170.234238 276.993774,168.987213 
	C276.837555,165.770142 277.612640,164.474792 281.549164,164.692566 
	C290.969543,165.213684 300.438202,164.860916 310.534363,164.860916 
	C310.534363,180.397324 310.534363,195.841080 310.304932,211.624802 
	C310.033173,198.507675 309.876282,185.049316 310.022430,171.594284 
	C310.063171,167.844742 309.189667,166.186920 305.081543,166.365784 
	C298.281982,166.661789 291.450989,166.659256 284.650970,166.368256 
	C280.392853,166.186035 279.295685,167.874741 279.326630,171.872940 
	C279.443695,186.988602 279.273132,202.106491 279.098389,217.610153 
z"/>
<path fill="#FBF5F6" opacity="1.000000" stroke="none" 
	d="
M896.118042,270.084076 
	C896.122437,275.048523 896.122437,279.524231 896.122437,284.307770 
	C892.722717,284.307770 889.653564,284.307770 886.289673,284.307770 
	C886.289673,277.414032 886.289673,270.661926 886.289673,263.510071 
	C889.235474,263.510071 892.290039,263.510071 896.113647,263.510071 
	C896.113647,265.431793 896.113647,267.513580 896.118042,270.084076 
z"/>
<path fill="#0E1A1B" opacity="1.000000" stroke="none" 
	d="
M481.106567,260.942230 
	C486.869110,260.942291 492.144897,260.942291 498.138672,260.942291 
	C498.138672,268.456696 498.220032,275.524933 498.034271,282.586151 
	C498.011414,283.454651 496.581238,284.999756 495.770111,285.021973 
	C488.694855,285.215790 481.612091,285.133911 474.433105,285.133911 
	C474.433105,276.923798 474.433105,269.213470 474.433105,260.942169 
	C476.730133,260.942169 478.674988,260.942169 481.106567,260.942230 
M494.735352,262.100250 
	C489.923065,262.073944 485.109070,262.116058 480.299133,261.995361 
	C477.479919,261.924591 475.905701,262.806427 475.990875,265.937195 
	C476.112671,270.415100 475.763214,274.924500 476.195953,279.363800 
	C476.322784,280.665192 478.332886,282.680847 479.631531,282.806915 
	C484.070892,283.238068 488.585358,283.116058 493.053711,282.877838 
	C494.203888,282.816467 496.257538,281.549805 496.254059,280.845001 
	C496.223541,274.666077 495.820709,268.489044 494.735352,262.100250 
z"/>
<path fill="#011C1B" opacity="1.000000" stroke="none" 
	d="
M108.998413,284.932281 
	C102.371384,284.932281 95.744354,284.932281 88.703377,284.932281 
	C88.703377,276.944641 88.703377,269.243896 88.703377,261.257446 
	C96.331360,261.257446 103.755203,261.257446 112.457634,261.257446 
	C111.914688,269.193634 111.377792,277.041504 110.305496,284.759827 
	C109.437492,284.519714 109.180260,284.620392 108.998413,284.932281 
M90.051476,264.886139 
	C90.038589,269.529999 90.104790,274.175934 89.983902,278.816956 
	C89.908379,281.716217 90.964546,283.112518 94.020462,283.022278 
	C98.329063,282.894958 102.647049,282.895142 106.955650,283.022522 
	C109.993500,283.112274 111.095169,281.759430 111.013092,278.839020 
	C110.896645,274.695831 110.879349,270.543091 111.024216,266.401581 
	C111.134743,263.241699 109.940285,261.849884 106.680496,261.978271 
	C102.540382,262.141327 98.379082,261.856567 94.248047,262.109680 
	C92.856758,262.194946 91.529999,263.333466 90.051476,264.886139 
z"/>
<path fill="#011C1B" opacity="1.000000" stroke="none" 
	d="
M788.498230,284.958618 
	C790.424927,284.244537 792.802063,283.120270 795.194641,283.086395 
	C807.998901,282.905090 808.000183,282.999115 807.997620,270.086578 
	C807.996033,262.002350 807.996094,262.002319 799.858337,262.007629 
	C787.295776,262.015808 787.305664,262.016083 786.981201,274.856384 
	C786.952209,276.003387 786.684387,277.144348 786.294678,278.625000 
	C786.061890,273.188782 786.061890,267.415649 786.061890,261.311157 
	C793.797302,261.311157 801.168335,261.311157 809.295349,261.311157 
	C809.295349,268.507385 809.414062,275.579529 809.144836,282.636932 
	C809.111267,283.517548 807.050842,284.997925 805.884399,285.043396 
	C800.250061,285.263275 794.600159,285.087250 788.498230,284.958618 
z"/>
<path fill="#FAF3F3" opacity="1.000000" stroke="none" 
	d="
M639.899109,261.656006 
	C636.221191,260.887085 633.331360,259.456970 634.117004,255.411560 
	C634.734009,252.234879 637.491577,251.208008 640.232788,252.050842 
	C642.092712,252.622711 643.557129,254.480850 645.198425,255.763748 
	C643.555969,257.711609 641.913452,259.659424 639.899109,261.656006 
z"/>
<path fill="#FBF4F4" opacity="1.000000" stroke="none" 
	d="
M349.857117,261.637451 
	C348.707214,261.448395 347.610046,261.424469 347.202362,260.882172 
	C345.936829,259.198792 343.851929,257.117188 344.139557,255.572723 
	C344.413391,254.102417 347.273132,252.158493 348.990967,252.163361 
	C350.968842,252.168961 353.783203,253.656845 354.625214,255.317062 
	C355.203003,256.456390 353.111023,259.031311 352.041473,260.864777 
	C351.786133,261.302551 350.848877,261.342499 349.857117,261.637451 
z"/>
<path fill="#FAF2F2" opacity="1.000000" stroke="none" 
	d="
M886.004028,258.438965 
	C886.479309,256.112091 886.547852,252.991409 887.678589,252.541794 
	C889.697815,251.738876 892.619324,251.981415 894.643188,252.914978 
	C895.700500,253.402725 896.165039,256.364807 895.920105,258.068970 
	C895.756775,259.205414 893.808350,260.983673 892.767456,260.911316 
	C890.500122,260.753815 888.302185,259.597107 886.004028,258.438965 
z"/>
<path fill="#131B19" opacity="1.000000" stroke="none" 
	d="
M191.350220,211.976852 
	C191.020218,211.917526 191.009277,211.735123 190.977936,211.279419 
	C192.174408,209.673813 193.167114,207.968018 194.649582,207.078247 
	C199.370880,204.244553 202.312485,200.717987 200.728088,195.634811 
	C202.923676,193.663712 204.671082,192.094986 206.656967,190.283142 
	C206.190964,198.142502 201.914902,204.138062 195.692352,208.968491 
	C194.389725,209.979706 193.012268,210.894531 191.350220,211.976852 
z"/>
<path fill="#F4E0E2" opacity="1.000000" stroke="none" 
	d="
M553.609680,253.196106 
	C559.287354,251.875824 560.394714,255.736099 561.974670,260.433838 
	C559.539490,259.330200 557.758362,258.522980 555.725952,257.601868 
	C554.343140,258.348816 552.599976,259.290405 550.856812,260.231995 
	C550.516846,259.939819 550.176819,259.647675 549.836853,259.355499 
	C550.970764,257.346039 552.104736,255.336563 553.609680,253.196106 
z"/>
<path fill="#0B1C1B" opacity="1.000000" stroke="none" 
	d="
M308.512634,119.101501 
	C308.087006,119.764030 307.205902,120.870575 306.307587,120.884750 
	C298.333954,121.010582 290.356934,120.972038 282.382050,120.881805 
	C281.684418,120.873909 280.994904,120.151917 280.153870,119.399986 
	C289.353851,119.038559 298.701508,119.038757 308.512634,119.101501 
z"/>
<path fill="#131B19" opacity="1.000000" stroke="none" 
	d="
M207.429260,189.014435 
	C206.902908,180.418243 206.747559,171.658844 206.730881,162.567520 
	C210.059814,171.006760 209.676544,179.902878 207.429260,189.014435 
z"/>
<path fill="#0B1C1B" opacity="1.000000" stroke="none" 
	d="
M199.156189,126.533112 
	C198.943130,125.371681 198.900360,123.943916 198.999603,122.526100 
	C199.441803,116.208885 199.911972,109.893539 200.403137,103.579933 
	C200.503784,102.286118 200.737991,101.002686 200.997681,99.335358 
	C203.257645,108.230927 203.292389,117.373093 199.156189,126.533112 
z"/>
<path fill="#0B1C1B" opacity="1.000000" stroke="none" 
	d="
M199.172745,150.417389 
	C196.563766,149.003510 193.875488,147.264938 191.132553,145.183456 
	C193.749741,146.591263 196.421600,148.341995 199.172745,150.417389 
z"/>
<path fill="#0B1C1B" opacity="1.000000" stroke="none" 
	d="
M206.645569,161.731873 
	C206.028030,162.049194 205.351898,162.025848 204.337891,162.001251 
	C204.000000,162.000000 204.002167,162.001526 204.002167,162.001526 
	C203.681244,159.896835 203.360336,157.792130 203.070343,155.275574 
	C204.263184,157.039551 205.425095,159.215378 206.645569,161.731873 
z"/>
<path fill="#0B1C1B" opacity="1.000000" stroke="none" 
	d="
M202.996078,154.610962 
	C201.822052,153.752686 200.499878,152.593094 199.254425,151.050293 
	C200.503387,151.881287 201.675644,153.095474 202.996078,154.610962 
z"/>
<path fill="#0B1C1B" opacity="1.000000" stroke="none" 
	d="
M201.249008,98.539009 
	C200.712097,97.390610 200.225220,95.864883 199.988281,94.087280 
	C200.591843,95.277496 200.945435,96.719589 201.249008,98.539009 
z"/>
<path fill="#201A1C" opacity="1.000000" stroke="none" 
	d="
M199.186859,91.738434 
	C198.559937,91.134605 197.897476,90.237953 197.340179,89.006897 
	C198.014008,89.596870 198.582657,90.521240 199.186859,91.738434 
z"/>
<path fill="#131B19" opacity="1.000000" stroke="none" 
	d="
M310.031250,115.418304 
	C310.196991,116.300758 310.316803,117.573738 310.143250,118.897888 
	C309.895081,117.902313 309.940216,116.855576 310.031250,115.418304 
z"/>
<path fill="#0B1C1B" opacity="1.000000" stroke="none" 
	d="
M188.861755,143.719238 
	C187.920151,143.680069 186.697693,143.397522 185.248703,142.797485 
	C186.208420,142.811966 187.394669,143.143906 188.861755,143.719238 
z"/>
<path fill="#0B1C1B" opacity="1.000000" stroke="none" 
	d="
M191.013031,144.739044 
	C190.815796,144.843521 190.555054,144.663025 190.174896,144.254715 
	C190.325439,144.209824 190.623444,144.352219 191.013031,144.739044 
z"/>
<path fill="#011C1B" opacity="1.000000" stroke="none" 
	d="
M786.031311,281.262268 
	C786.339355,281.232086 786.407288,281.477997 786.164673,281.867737 
	C786.063354,281.972137 786.000244,281.498932 786.031311,281.262268 
z"/>
<path fill="#201B1A" opacity="1.000000" stroke="none" 
	d="
M109.252319,284.974792 
	C109.180260,284.620392 109.437492,284.519714 109.880882,284.737976 
	C109.829842,284.902863 109.668037,284.960052 109.252319,284.974792 
z"/>
<path fill="#011C1B" opacity="1.000000" stroke="none" 
	d="
M786.093628,284.290771 
	C786.329224,284.178009 786.553162,284.374054 786.864014,284.801453 
	C786.701965,284.841888 786.412292,284.697510 786.093628,284.290771 
z"/>
<path fill="#BC0F27" opacity="1.000000" stroke="none" 
	d="
M961.802979,127.320976 
	C966.972351,138.962631 967.668884,150.224747 961.555542,161.402771 
	C957.061279,169.620361 949.847473,173.308044 940.785400,173.046066 
	C932.070251,172.794113 925.452454,168.450333 921.417847,160.718246 
	C915.125183,148.659042 916.755798,133.274307 924.219543,123.868706 
	C933.502563,112.170601 953.428711,113.408768 960.413696,125.419640 
	C960.743835,125.987366 961.214294,126.473465 961.802979,127.320976 
z"/>
<path fill="#0B1C1B" opacity="1.000000" stroke="none" 
	d="
M276.992615,169.457245 
	C277.325562,170.234238 277.939514,171.479874 277.945679,172.728500 
	C278.011841,186.128830 277.990784,199.529648 277.956970,212.930252 
	C277.954956,213.732010 277.641052,214.532990 277.232788,215.674149 
	C276.992706,200.651749 276.992096,185.289505 276.992615,169.457245 
z"/>
<path fill="#131B19" opacity="1.000000" stroke="none" 
	d="
M309.488037,122.507309 
	C309.479431,122.485252 309.496674,122.529373 309.488037,122.507309 
z"/>
<path fill="#BD122B" opacity="1.000000" stroke="none" 
	d="
M509.462769,149.462585 
	C512.093323,137.905533 514.541565,126.734978 516.419250,118.167564 
	C519.423035,131.863327 522.993042,148.141068 526.642212,164.779724 
	C519.994934,164.779724 513.039734,164.779724 506.000427,164.779724 
	C507.113251,159.714050 508.196808,154.781555 509.462769,149.462585 
z"/>
<path fill="#BB0E25" opacity="1.000000" stroke="none" 
	d="
M136.012268,181.948929 
	C135.987442,175.667404 136.137451,169.378433 135.870010,163.107254 
	C135.717880,159.539505 137.077316,158.381866 140.457047,158.656586 
	C142.919998,158.856781 145.417496,158.585236 147.892899,158.686935 
	C159.021103,159.144012 163.666931,167.868423 157.637512,178.179382 
	C154.735809,179.768875 152.322891,181.538177 149.741760,181.832489 
	C145.219650,182.348175 140.594345,181.959015 136.012268,181.948929 
z"/>
<path fill="#B50E25" opacity="1.000000" stroke="none" 
	d="
M154.939407,109.571228 
	C154.386719,112.818031 158.193359,115.508636 155.264206,119.378319 
	C150.292984,125.945747 143.804657,127.064529 136.167175,125.800339 
	C135.912125,119.443680 135.748810,113.821739 136.052521,108.225128 
	C136.119247,106.995125 137.742020,104.950829 138.825027,104.826935 
	C144.118988,104.221291 149.338196,104.706581 153.773804,108.222420 
	C153.773804,108.222420 153.939316,108.195076 153.967194,108.441628 
	C154.309845,108.982529 154.624619,109.276878 154.939407,109.571228 
z"/>
<path fill="#1F1B1A" opacity="1.000000" stroke="none" 
	d="
M153.833160,107.766876 
	C149.338196,104.706581 144.118988,104.221291 138.825027,104.826935 
	C137.742020,104.950829 136.119247,106.995125 136.052521,108.225128 
	C135.748810,113.821739 135.912125,119.443680 135.869965,125.522552 
	C135.222595,124.587395 134.159378,123.209183 134.086945,121.780739 
	C133.859375,117.292419 133.846405,112.776749 134.086731,108.289680 
	C134.176804,106.607658 134.849838,103.806068 135.842010,103.516090 
	C141.001190,102.008148 146.353989,100.304184 151.629700,100.334793 
	C155.590576,100.357773 153.477631,104.788162 153.833160,107.766876 
M150.528534,103.502647 
	C150.528534,103.502647 150.486526,103.518982 150.528534,103.502647 
z"/>
<path fill="#011C1B" opacity="1.000000" stroke="none" 
	d="
M136.141464,182.315475 
	C140.594345,181.959015 145.219650,182.348175 149.741760,181.832489 
	C152.322891,181.538177 154.735809,179.768875 157.600128,178.534821 
	C157.109329,179.598801 156.469498,181.507706 155.338760,181.865570 
	C149.103394,183.839005 142.740799,185.231415 136.141464,182.315475 
z"/>
<path fill="#1F1B1A" opacity="1.000000" stroke="none" 
	d="
M154.816269,109.283676 
	C154.624619,109.276878 154.309845,108.982529 153.955719,108.358536 
	C154.175278,108.351311 154.434204,108.673714 154.816269,109.283676 
z"/>
<path fill="#0B1C1B" opacity="1.000000" stroke="none" 
	d="
M203.999207,161.998901 
	C203.998413,161.997787 203.836533,162.269516 203.836533,162.269516 
	C203.836533,162.269516 203.851532,162.078720 203.926849,162.040131 
	C204.002167,162.001526 204.000000,162.000000 203.999207,161.998901 
z"/>
<path fill="#C5304A" opacity="1.000000" stroke="none" 
	d="
M169.095032,271.841370 
	C171.988861,270.003540 173.561234,271.203888 173.747086,273.785522 
	C173.813675,274.710266 172.091492,275.763794 171.185745,276.758575 
	C170.401688,275.212097 169.617630,273.665619 169.095032,271.841370 
z"/>
<path fill="#C5304A" opacity="1.000000" stroke="none" 
	d="
M555.864014,271.011169 
	C558.748779,271.966187 559.783752,273.600403 557.655212,275.678223 
	C557.014404,276.303772 554.681274,276.265015 554.035522,275.618896 
	C551.961670,273.543823 552.939453,271.906921 555.864014,271.011169 
z"/>
<path fill="#1E1B1A" opacity="1.000000" stroke="none" 
	d="
M495.131805,262.205841 
	C495.820709,268.489044 496.223541,274.666077 496.254059,280.845001 
	C496.257538,281.549805 494.203888,282.816467 493.053711,282.877838 
	C488.585358,283.116058 484.070892,283.238068 479.631531,282.806915 
	C478.332886,282.680847 476.322784,280.665192 476.195953,279.363800 
	C475.763214,274.924500 476.112671,270.415100 475.990875,265.937195 
	C475.905701,262.806427 477.479919,261.924591 480.299133,261.995361 
	C485.109070,262.116058 489.923065,262.073944 495.131805,262.205841 
z"/>
<path fill="#201B1A" opacity="1.000000" stroke="none" 
	d="
M90.112610,264.438354 
	C91.529999,263.333466 92.856758,262.194946 94.248047,262.109680 
	C98.379082,261.856567 102.540382,262.141327 106.680496,261.978271 
	C109.940285,261.849884 111.134743,263.241699 111.024216,266.401581 
	C110.879349,270.543091 110.896645,274.695831 111.013092,278.839020 
	C111.095169,281.759430 109.993500,283.112274 106.955650,283.022522 
	C102.647049,282.895142 98.329063,282.894958 94.020462,283.022278 
	C90.964546,283.112518 89.908379,281.716217 89.983902,278.816956 
	C90.104790,274.175934 90.038589,269.529999 90.112610,264.438354 
z"/>
<path fill="#1F1B1A" opacity="1.000000" stroke="none" 
	d="
M150.507538,103.510818 
	C150.486526,103.518982 150.528534,103.502647 150.507538,103.510818 
z"/>
</svg>